<mxfile host="app.diagrams.net" modified="2020-10-23T08:48:01.729Z" agent="5.0 (Windows NT 10.0; Win64; x64) AppleWebKit/537.36 (KHTML, like Gecko) Chrome/86.0.4240.75 Safari/537.36" etag="Akv4NZCFeuPIkR3pi9Jj" version="13.8.1" type="github">
  <diagram name="Page-1" id="8ce9d11a-91a2-4d17-14d8-a56ed91bf033">
    <mxGraphModel dx="1221" dy="682" grid="1" gridSize="10" guides="1" tooltips="1" connect="1" arrows="1" fold="1" page="1" pageScale="1" pageWidth="3069" pageHeight="3054" background="#ffffff" math="0" shadow="0">
      <root>
        <mxCell id="0" />
        <mxCell id="1" parent="0" />
        <mxCell id="GGXxyZ8UG-ZR7x2Og8x1-6" value="" style="edgeStyle=orthogonalEdgeStyle;rounded=0;orthogonalLoop=1;jettySize=auto;html=1;" edge="1" parent="1" source="GGXxyZ8UG-ZR7x2Og8x1-2" target="GGXxyZ8UG-ZR7x2Og8x1-5">
          <mxGeometry relative="1" as="geometry" />
        </mxCell>
        <mxCell id="GGXxyZ8UG-ZR7x2Og8x1-2" value="开始" style="rounded=1;whiteSpace=wrap;html=1;" vertex="1" parent="1">
          <mxGeometry x="70" y="30" width="120" height="60" as="geometry" />
        </mxCell>
        <mxCell id="GGXxyZ8UG-ZR7x2Og8x1-5" value="监听事件" style="rounded=1;whiteSpace=wrap;html=1;" vertex="1" parent="1">
          <mxGeometry x="70" y="170" width="120" height="60" as="geometry" />
        </mxCell>
      </root>
    </mxGraphModel>
  </diagram>
</mxfile>
